<svg width="33" height="32" viewBox="0 0 33 32" fill="none" xmlns="http://www.w3.org/2000/svg">
<ellipse cx="16.5" cy="16" rx="16.5" ry="16" fill="white" fill-opacity="0.05"/>
<path fill-rule="evenodd" clip-rule="evenodd" d="M16.9393 10.2332C16.8899 10.1612 16.8242 10.1024 16.7477 10.0618C16.6712 10.0212 16.5863 10 16.5 10C16.4137 10 16.3288 10.0212 16.2523 10.0618C16.1758 10.1024 16.1101 10.1612 16.0607 10.2332L12.6771 15.1551L9.915 12.3418C9.84008 12.2653 9.74454 12.2132 9.64049 12.1921C9.53645 12.171 9.42858 12.1818 9.33058 12.2231C9.23257 12.2645 9.14883 12.3346 9.08998 12.4244C9.03113 12.5143 8.99981 12.6199 9 12.728V19.8183C9 20.397 9.22577 20.9519 9.62763 21.361C10.0295 21.7701 10.5745 22 11.1429 22H21.8571C22.4255 22 22.9705 21.7701 23.3724 21.361C23.7742 20.9519 24 20.397 24 19.8183V12.728C24.0002 12.6199 23.9689 12.5143 23.91 12.4244C23.8512 12.3346 23.7674 12.2645 23.6694 12.2231C23.5714 12.1818 23.4636 12.171 23.3595 12.1921C23.2555 12.2132 23.1599 12.2653 23.085 12.3418L20.3229 15.1551L16.9393 10.2332Z" fill="white"/>
</svg>
